<svg width="30" height="30" viewBox="0 0 30 30" fill="none" xmlns="http://www.w3.org/2000/svg">
<path fill-rule="evenodd" clip-rule="evenodd" d="M28.8887 5.61824C29.286 3.68103 27.3833 2.07116 25.5387 2.78388L2.92717 11.5201C0.867193 12.316 0.775405 15.1966 2.78052 16.122L7.70467 18.3948L10.0472 26.5934C10.1688 27.0193 10.5068 27.349 10.9355 27.4601C11.3642 27.5711 11.8198 27.4471 12.1329 27.1339L15.7413 23.5255L20.7959 27.3165C22.2632 28.4169 24.3764 27.6154 24.7449 25.8188L28.8887 5.61824ZM3.82817 13.8521L26.4397 5.11588L22.2959 25.3165L16.374 20.875C15.8764 20.5018 15.18 20.5513 14.7402 20.9911L13.1947 22.5366L13.659 19.9828L22.7579 10.8839C23.2008 10.4411 23.2475 9.73895 22.8674 9.24129C22.4873 8.74361 21.7977 8.60403 21.2539 8.91473L8.6881 16.0951L3.82817 13.8521ZM10.2202 18.099L10.9782 20.752L11.2692 19.1514C11.3147 18.9013 11.4354 18.6709 11.6152 18.4911L14.39 15.7164L10.2202 18.099Z" fill="#BBB4A7"/>
</svg>
