<svg width="17" height="17" fill="none" xmlns="http://www.w3.org/2000/svg"><g clip-path="url(#clip0_455_96)" fill="#BBB4A7"><path d="M16.87 4.979L12.022.129A.441.441 0 0011.71 0H2.995A2.998 2.998 0 000 2.995v11.01A2.998 2.998 0 002.995 17h11.01A2.998 2.998 0 0017 14.005V5.291a.441.441 0 00-.13-.312zm-4.793-3.547l3.49 3.491h-3.49v-3.49zm1.928 14.686H2.995a2.115 2.115 0 01-2.113-2.113V2.995C.882 1.83 1.83.882 2.995.882h8.2v4.482a.44.44 0 00.44.441h4.483v8.2a2.115 2.115 0 01-2.113 2.113z"/><path d="M7.632 3.851a2.268 2.268 0 00-1.615-.668c-.61 0-1.183.237-1.614.668a2.268 2.268 0 00-.669 1.615c0 .61.238 1.183.669 1.614l4.523 4.522a1.501 1.501 0 002.12 0 1.501 1.501 0 000-2.12L6.568 5.004a.441.441 0 00-.623.624l4.478 4.477a.618.618 0 01-.874.874L5.027 6.456a1.392 1.392 0 01-.41-.99 1.402 1.402 0 012.392-.99l4.738 4.738a2.182 2.182 0 01-1.542 3.722c-.582 0-1.13-.227-1.542-.639L5.02 8.654a.441.441 0 00-.624.623l3.644 3.644a3.042 3.042 0 002.165.897c.818 0 1.587-.319 2.165-.897a3.043 3.043 0 00.897-2.166c0-.818-.318-1.587-.897-2.165L7.632 3.851z"/></g><defs><clipPath id="clip0_455_96"><path fill="#fff" d="M0 0h17v17H0z"/></clipPath></defs></svg>