<svg width="30" height="30" fill="none" xmlns="http://www.w3.org/2000/svg"><path d="M20.625 0H9.375A9.372 9.372 0 000 9.375v11.25A9.372 9.372 0 009.375 30h11.25A9.372 9.372 0 0030 20.625V9.375A9.372 9.372 0 0020.625 0zm6.563 20.625a6.567 6.567 0 01-6.563 6.563H9.375a6.567 6.567 0 01-6.563-6.563V9.375a6.567 6.567 0 016.563-6.563h11.25a6.567 6.567 0 016.563 6.563v11.25z" fill="#BBB4A7"/><path d="M15.5 8A7.5 7.5 0 008 15.5a7.5 7.5 0 007.5 7.5 7.5 7.5 0 007.5-7.5A7.5 7.5 0 0015.5 8zm0 12.188a4.694 4.694 0 01-4.688-4.688 4.694 4.694 0 014.688-4.688 4.694 4.694 0 014.688 4.688 4.694 4.694 0 01-4.688 4.688zm7.502-12.184a1.002 1.002 0 100-2.004 1.002 1.002 0 000 2.004z" fill="#BBB4A7"/></svg>