<svg width="20" height="52" viewBox="0 0 20 52" fill="none" xmlns="http://www.w3.org/2000/svg">
<g clip-path="url(#clip0_404_499)">
<path d="M10.7619 51.612C10.2413 52.1327 9.39699 52.1327 8.87626 51.612L0.390542 43.1263C-0.130183 42.6056 -0.130183 41.7613 0.390542 41.2406C0.911269 40.7199 1.75553 40.7199 2.27626 41.2406L9.81912 48.7835L17.3619 41.2406C17.8827 40.7199 18.7269 40.7199 19.2477 41.2406C19.7684 41.7613 19.7684 42.6056 19.2477 43.1263L10.7619 51.612ZM11.1525 4.87492e-07L11.1525 50.6691L8.48572 50.6691L8.48573 6.04062e-07L11.1525 4.87492e-07Z" fill="#BBB4A7"/>
</g>
<defs>
<clipPath id="clip0_404_499">
<rect width="52" height="20" fill="white" transform="matrix(-4.37114e-08 1 1 4.37114e-08 0 0)"/>
</clipPath>
</defs>
</svg>
