<svg width="23" height="22" viewBox="0 0 23 22" fill="none" xmlns="http://www.w3.org/2000/svg">
<path d="M14.75 1V2.25C14.75 4.60702 14.75 5.78554 15.4823 6.51776C16.2145 7.25 17.393 7.25 19.75 7.25H21.625M21.625 7.25L18.5 4.75M21.625 7.25L18.5 9.75" stroke="#BBB4A7" stroke-width="2" stroke-linecap="round" stroke-linejoin="round"/>
<path d="M8.547 2.64521L9.35825 4.09887C10.0904 5.41072 9.7965 7.13165 8.64338 8.28475C8.64338 8.28475 7.24485 9.6835 9.78063 12.2194C12.3156 14.7544 13.7153 13.3566 13.7153 13.3566C14.8684 12.2035 16.5893 11.9096 17.9011 12.6417L19.3548 13.453C21.3358 14.5585 21.5696 17.3365 19.8285 19.0777C18.7823 20.124 17.5005 20.9381 16.0836 20.9917C13.6985 21.0822 9.64788 20.4786 5.58463 16.4154C1.52141 12.3521 0.917765 8.30152 1.00819 5.91636C1.0619 4.4995 1.876 3.21779 2.92227 2.17154C4.66345 0.43035 7.44146 0.6643 8.547 2.64521Z" stroke="#BBB4A7" stroke-width="2" stroke-linecap="round"/>
</svg>
