<svg width="30" height="30" viewBox="0 0 30 30" fill="none" xmlns="http://www.w3.org/2000/svg">
<g clip-path="url(#clip0_455_117)">
<path d="M16.25 5C15.5596 5 15 5.55965 15 6.25C15 6.94035 15.5596 7.5 16.25 7.5C17.841 7.5 19.0696 8.02486 19.8974 8.85264C20.7251 9.68041 21.25 10.9091 21.25 12.5C21.25 13.1904 21.8096 13.75 22.5 13.75C23.1904 13.75 23.75 13.1904 23.75 12.5C23.75 10.3409 23.0249 8.44459 21.6651 7.08486C20.3054 5.72514 18.409 5 16.25 5Z" fill="#BBB4A7"/>
<path d="M6.2675 10.0077C6.41034 8.878 7.87846 7.34268 9.0436 7.51304L9.04174 7.51118C10.0156 7.69624 10.8152 9.16206 11.3422 10.1281C11.4287 10.2868 11.5079 10.432 11.5794 10.5558C11.938 11.1925 11.7051 11.8376 11.3707 12.1098C11.332 12.141 11.2915 12.1732 11.2497 12.2063C10.8047 12.5596 10.2264 13.0186 10.3618 13.4792C10.625 14.375 13.75 17.5 15.287 18.3884C15.7576 18.6604 16.1235 18.1321 16.4369 17.6797C16.5109 17.5729 16.582 17.4702 16.6509 17.3834C16.9126 17.0339 17.5582 16.825 18.1935 17.17C19.1422 17.7225 20.036 18.3646 20.8625 19.0875C21.2752 19.4325 21.3721 19.9424 21.0861 20.4812C20.5824 21.4304 19.1254 22.682 18.0677 22.4276C16.2205 21.9835 8.75 19.0875 6.35041 10.6975C6.22476 10.3279 6.24556 10.1724 6.2636 10.0374L6.2675 10.0077Z" fill="#BBB4A7"/>
<path d="M16.25 8.75C15.5596 8.75 15 9.30965 15 10C15 10.6904 15.5596 11.25 16.25 11.25C16.4685 11.25 16.7915 11.3718 17.0849 11.6651C17.3781 11.9585 17.5 12.2815 17.5 12.5C17.5 13.1904 18.0596 13.75 18.75 13.75C19.4404 13.75 20 13.1904 20 12.5C20 11.4685 19.4969 10.5416 18.8526 9.89736C18.2085 9.25319 17.2815 8.75 16.25 8.75Z" fill="#BBB4A7"/>
<path fill-rule="evenodd" clip-rule="evenodd" d="M9.39674 29.7888C9.43231 29.8084 9.46882 29.8263 9.50612 29.8423C10.1845 30.1341 11.0219 29.4827 12.6967 28.1801L14.375 26.8748C17.7355 26.9861 20.6425 26.5451 22.89 25.7587C25.4033 24.8792 27.3795 22.9031 28.259 20.3897C29.471 16.9261 29.471 10.5734 28.259 7.10974C27.3795 4.59634 25.4033 2.62019 22.89 1.74071C18.8878 0.340327 11.0375 0.366451 7.11004 1.74071C4.59663 2.62019 2.6205 4.59634 1.74101 7.10974C0.529039 10.5734 0.529039 16.9261 1.74101 20.3897C2.6205 22.9031 4.59663 24.8792 7.11004 25.7587C7.60312 25.9312 8.15461 26.1204 8.74997 26.2498C8.74997 28.3716 8.74997 29.4324 9.39674 29.7888ZM11.25 26.1382V24.7384C11.25 24.4444 11.045 24.1903 10.7574 24.1288C9.80506 23.9252 8.85842 23.7218 7.93574 23.3989C6.14044 22.7708 4.72892 21.3592 4.10072 19.5639C3.62336 18.1997 3.33203 16.0564 3.33203 13.7497C3.33203 11.443 3.62336 9.29966 4.10072 7.93544C4.72892 6.14016 6.14044 4.72862 7.93574 4.10042C9.52028 3.54597 12.1464 3.20334 14.9747 3.20022C17.8027 3.19709 20.4451 3.53386 22.0642 4.10042C23.8595 4.72862 25.2711 6.14016 25.8992 7.93544C26.3766 9.29966 26.668 11.443 26.668 13.7497C26.668 16.0564 26.3766 18.1997 25.8992 19.5639C25.2711 21.3592 23.8595 22.7708 22.0642 23.3989C19.3996 24.3313 16.5737 24.4361 13.7798 24.3533C13.6338 24.3491 13.4907 24.3954 13.3755 24.4851L11.25 26.1382Z" fill="#BBB4A7"/>
</g>
<defs>
<clipPath id="clip0_455_117">
<rect width="30" height="30" fill="white"/>
</clipPath>
</defs>
</svg>
