<svg width="17" height="17" viewBox="0 0 17 17" fill="none" xmlns="http://www.w3.org/2000/svg">
<g clip-path="url(#clip0_455_96)">
<path d="M16.8708 4.97882L12.0212 0.129132C11.9385 0.0464493 11.8263 0 11.7093 0H2.99473C1.34343 0 0 1.34343 0 2.99473V14.0053C0 15.6566 1.34343 17.0001 2.99473 17.0001H14.0053C15.6566 17.0001 17.0001 15.6566 17.0001 14.0053V5.29059C17 5.17366 16.9535 5.0615 16.8708 4.97882ZM12.0768 1.43206L15.5679 4.92311H12.0768V1.43206ZM14.0053 16.118H2.99473C1.82975 16.118 0.881949 15.1702 0.881949 14.0053V2.99473C0.881949 1.82975 1.82975 0.881949 2.99473 0.881949H11.1949V5.36408C11.1949 5.60758 11.3923 5.80506 11.6358 5.80506H16.118V14.0053C16.118 15.1702 15.1702 16.118 14.0053 16.118Z" fill="#BBB4A7"/>
<path d="M7.63156 3.85128C7.20036 3.42008 6.62709 3.18262 6.0173 3.18262C5.4075 3.18262 4.83424 3.42008 4.40304 3.85128C3.97184 4.28248 3.73438 4.85575 3.73438 5.46554C3.73438 6.07534 3.97184 6.6486 4.40304 7.0798L8.92567 11.6024C9.51048 12.1872 10.4617 12.187 11.0464 11.6024C11.631 11.0177 11.631 10.0664 11.0464 9.48171L6.56844 5.00391C6.39624 4.83171 6.11696 4.83171 5.94483 5.00391C5.77263 5.17612 5.77263 5.45533 5.94483 5.62753L10.4227 10.1054C10.6635 10.3462 10.6635 10.7381 10.4227 10.9788C10.1819 11.2196 9.79013 11.2196 9.54928 10.9788L5.02665 6.45626C4.76199 6.19161 4.61632 5.83978 4.61632 5.46561C4.61632 5.09137 4.76207 4.73955 5.02665 4.47497C5.57294 3.92867 6.46165 3.92867 7.00795 4.47497L11.7467 9.21368C12.5968 10.0638 12.5968 11.4471 11.7467 12.2972C11.3349 12.709 10.7873 12.9358 10.2049 12.9358C9.62256 12.9358 9.07501 12.709 8.66322 12.2972L5.01982 8.65371C4.84761 8.48151 4.56833 8.48151 4.3962 8.65371C4.224 8.82591 4.224 9.10512 4.3962 9.27732L8.03961 12.9207C8.61802 13.4991 9.387 13.8177 10.2049 13.8177C11.0229 13.8177 11.7919 13.4991 12.3703 12.9207C12.9486 12.3423 13.2672 11.5733 13.2672 10.7553C13.2672 9.93739 12.9487 9.16833 12.3703 8.58999L7.63156 3.85128Z" fill="#BBB4A7"/>
</g>
<defs>
<clipPath id="clip0_455_96">
<rect width="17" height="17" fill="white"/>
</clipPath>
</defs>
</svg>
