<svg width="30" height="30" viewBox="0 0 30 30" fill="none" xmlns="http://www.w3.org/2000/svg">
<path d="M20.625 0H9.375C4.19531 0 0 4.19531 0 9.375V20.625C0 25.8047 4.19531 30 9.375 30H20.625C25.8047 30 30 25.8047 30 20.625V9.375C30 4.19531 25.8047 0 20.625 0ZM27.1875 20.625C27.1875 24.2461 24.2461 27.1875 20.625 27.1875H9.375C5.75391 27.1875 2.8125 24.2461 2.8125 20.625V9.375C2.8125 5.75391 5.75391 2.8125 9.375 2.8125H20.625C24.2461 2.8125 27.1875 5.75391 27.1875 9.375V20.625Z" fill="#BBB4A7"/>
<path d="M15.5 8C11.3574 8 8 11.3574 8 15.5C8 19.6426 11.3574 23 15.5 23C19.6426 23 23 19.6426 23 15.5C23 11.3574 19.6426 8 15.5 8ZM15.5 20.1875C12.916 20.1875 10.8125 18.084 10.8125 15.5C10.8125 12.916 12.916 10.8125 15.5 10.8125C18.084 10.8125 20.1875 12.916 20.1875 15.5C20.1875 18.084 18.084 20.1875 15.5 20.1875Z" fill="#BBB4A7"/>
<path d="M23.002 8.00391C23.5553 8.00391 24.0039 7.55532 24.0039 7.00195C24.0039 6.44859 23.5553 6 23.002 6C22.4486 6 22 6.44859 22 7.00195C22 7.55532 22.4486 8.00391 23.002 8.00391Z" fill="#BBB4A7"/>
</svg>
