<svg width="228" height="58" viewBox="0 0 228 58" fill="none" xmlns="http://www.w3.org/2000/svg">
<path d="M31.6769 20.7662L62.2259 57.1806H79.6458L31.6769 0.00030899H18.2923V57.1806H31.6769V20.7662Z" fill="#BBB4A7"/>
<path d="M203.848 13.4046L191.999 33.9541H214.596L228 57.1808H212.529L206.328 46.4336H184.795L178.595 57.1808L170.859 43.7764L196.113 9.53674e-05L203.848 13.4046Z" fill="#BBB4A7"/>
<path d="M173.93 57.1806L167.434 46.4334H133.421L127.221 57.1806H173.93Z" fill="#BBB4A7"/>
<path d="M136.275 8.01086e-05H175.701L151.707 41.5518H136.236L154.03 10.7473H130.075L136.275 8.01086e-05Z" fill="#BBB4A7"/>
<path d="M47.0105 10.7277H66.2609V33.6591L79.6456 49.6221V10.7277H96.1995V57.1806H121.591L127.811 46.414H109.604V33.9543H122.831L129.032 23.2265H109.604V10.7277H124.426L130.606 0.00030899H37.9956L47.0105 10.7277Z" fill="#BBB4A7"/>
<path d="M13.4108 57.1807H0.0262299V-3.8147e-06H13.4108V57.1807Z" fill="#BBB4A7"/>
</svg>
